<?xml version="1.0" encoding="utf-8"?>
<!-- Generator: Adobe Illustrator 19.0.0, SVG Export Plug-In . SVG Version: 6.00 Build 0)  -->
<svg version="1.1" id="Camada_1" xmlns="http://www.w3.org/2000/svg" xmlns:xlink="http://www.w3.org/1999/xlink" x="0px" y="0px"
	 viewBox="0 0 74 58.2" style="enable-background:new 0 0 74 58.2;" xml:space="preserve">
<style type="text/css">
	.st0{fill:#FFFFFF;}
</style>
<path id="XMLID_1_" class="st0" d="M70.3,10.4H3.9c-1.1,0-2-0.9-2-2V3.7c0-1.1,0.9-2,2-2h66.4c1.1,0,2,0.9,2,2v4.7
	C72.3,9.5,71.4,10.4,70.3,10.4z"/>
<path id="XMLID_2_" class="st0" d="M61.7,25.5H12.5c-1.1,0-2-0.9-2-2v-4.7c0-1.1,0.9-2,2-2h49.2c1.1,0,2,0.9,2,2v4.7
	C63.7,24.6,62.8,25.5,61.7,25.5z"/>
<path id="XMLID_3_" class="st0" d="M53.7,40.5H20.5c-1.1,0-2-0.9-2-2v-4.7c0-1.1,0.9-2,2-2h33.1c1.1,0,2,0.9,2,2v4.7
	C55.7,39.6,54.8,40.5,53.7,40.5z"/>
<path id="XMLID_4_" class="st0" d="M47.4,55.5H26.8c-1.1,0-2-0.9-2-2v-4.7c0-1.1,0.9-2,2-2h20.7c1.1,0,2,0.9,2,2v4.7
	C49.4,54.6,48.5,55.5,47.4,55.5z"/>
</svg>
